<svg xmlns="http://www.w3.org/2000/svg" viewBox="0 0 233.45 233.45"><defs><style>.cls-1{fill:#fff;}.cls-2{fill:none;stroke:#fcdc00;stroke-miterlimit:10;stroke-width:17px;}.cls-3{fill:#114c82;}</style></defs><g id="Livello_2" data-name="Livello 2"><g id="Livello_1-2" data-name="Livello 1"><circle class="cls-1" cx="116.72" cy="116.72" r="103"/><circle class="cls-2" cx="116.72" cy="116.72" r="108.22"/><path class="cls-3" d="M94.94,86.15c-1.62-1.72-4.14-1.62-5.21.58l-26.4,52.68A3.15,3.15,0,0,0,66.14,144h36.73a3,3,0,0,0,2.81-1.76c8-16.33,3.17-41.2-10.74-56Zm19.35-47.91c-25.67,40.58-1.79,73.15,13.64,104a3.13,3.13,0,0,0,2.81,1.76H167.3a3.14,3.14,0,0,0,2.81-4.55S120.9,40.67,119.66,38.22C118.55,36,115.71,36,114.29,38.24Z"/><path class="cls-3" d="M70.73,159.49c.83,2.6,1.66,5.18,2.48,7.76s1.64,5.16,2.47,7.75a.49.49,0,0,1-.07.44.44.44,0,0,1-.38.2H72.5a.48.48,0,0,1-.47-.33l-.65-2.08-.65-2.07-2.23.48-2.22.46c-.18.54-.34,1.07-.51,1.59s-.33,1.07-.51,1.62a.48.48,0,0,1-.47.33H62.06a.46.46,0,0,1-.38-.2.49.49,0,0,1-.07-.44l2.48-7.75c.81-2.58,1.64-5.16,2.47-7.76a.42.42,0,0,1,.45-.33h3.27A.42.42,0,0,1,70.73,159.49Zm-1.06,8.39-1-3.23-1.15,3.68Z"/><path class="cls-3" d="M80.23,159.3a.49.49,0,0,1,.14.33v12.54H86.8a.45.45,0,0,1,.33.14.46.46,0,0,1,.15.33v2.5a.49.49,0,0,1-.15.36.45.45,0,0,1-.33.14H76.88a.49.49,0,0,1-.33-.14.52.52,0,0,1-.14-.36V159.63a.48.48,0,0,1,.47-.47h3A.49.49,0,0,1,80.23,159.3Z"/><path class="cls-3" d="M92,159.3a.49.49,0,0,1,.14.33v12.54h6.43a.45.45,0,0,1,.33.14.45.45,0,0,1,.14.33v2.5a.48.48,0,0,1-.14.36.45.45,0,0,1-.33.14H88.69a.45.45,0,0,1-.33-.14.52.52,0,0,1-.14-.36V159.63a.49.49,0,0,1,.14-.33.45.45,0,0,1,.33-.14h3A.49.49,0,0,1,92,159.3Z"/><path class="cls-3" d="M105.82,175.48a.49.49,0,0,1-.14-.34V159.63a.48.48,0,0,1,.47-.47h3a.5.5,0,0,1,.35.14.49.49,0,0,1,.14.33v15.51a.49.49,0,0,1-.14.34.44.44,0,0,1-.35.16h-3A.44.44,0,0,1,105.82,175.48Z"/><path class="cls-3" d="M111.6,159.2a.46.46,0,0,1,.54.15q1.86,2.51,3.71,5l3.71,5v-9.64a.48.48,0,0,1,.47-.47h3a.48.48,0,0,1,.35.14.49.49,0,0,1,.14.33v15.51a.49.49,0,0,1-.14.34.43.43,0,0,1-.35.16h-3a.42.42,0,0,1-.37-.22c-.76-1-1.5-2-2.22-2.95s-1.46-2-2.21-3v5.63a.49.49,0,0,1-.14.34.46.46,0,0,1-.36.16h-3a.41.41,0,0,1-.33-.16.45.45,0,0,1-.14-.34V159.63A.43.43,0,0,1,111.6,159.2Z"/><path class="cls-3" d="M134.13,174.76a8.35,8.35,0,0,1-2.42-2.27,8.57,8.57,0,0,1-1.33-2.92,8.91,8.91,0,0,1-.17-3.22,8.5,8.5,0,0,1,1.07-3.13,7.89,7.89,0,0,1,2.18-2.51,8.36,8.36,0,0,1,2.86-1.43,8,8,0,0,1,6.31.94A8.21,8.21,0,0,1,145,162.5a8.55,8.55,0,0,1,1.32,2.92,9.14,9.14,0,0,1,.18,3.22,8.47,8.47,0,0,1-1,3.13,8.15,8.15,0,0,1-2.18,2.51,8.68,8.68,0,0,1-2.87,1.43,7.91,7.91,0,0,1-6.31-1Zm.09-9.56a4.91,4.91,0,0,0-.54,1.81,5.09,5.09,0,0,0,.15,1.83,4.93,4.93,0,0,0,.83,1.65,4.78,4.78,0,0,0,1.42,1.26,4.53,4.53,0,0,0,1.82.59,4.62,4.62,0,0,0,1.82-.18,4.84,4.84,0,0,0,3.35-4.18,5.17,5.17,0,0,0-.16-1.84,4.91,4.91,0,0,0-.82-1.65,4.62,4.62,0,0,0-5.06-1.66,4.67,4.67,0,0,0-1.62.88A4.81,4.81,0,0,0,134.22,165.2Z"/><path class="cls-3" d="M147.89,159.2a.46.46,0,0,1,.54.15q1.86,2.51,3.71,5l3.72,5v-9.64a.45.45,0,0,1,.14-.33.45.45,0,0,1,.33-.14h3a.48.48,0,0,1,.35.14.46.46,0,0,1,.15.33v15.51a.46.46,0,0,1-.15.34.43.43,0,0,1-.35.16h-3a.43.43,0,0,1-.38-.22c-.75-1-1.49-2-2.21-2.95l-2.22-3v5.63a.49.49,0,0,1-.14.34.45.45,0,0,1-.36.16h-3a.44.44,0,0,1-.33-.16.49.49,0,0,1-.14-.34V159.63A.43.43,0,0,1,147.89,159.2Z"/><path class="cls-3" d="M160.9,175.5a.52.52,0,0,1-.14-.36V159.63a.49.49,0,0,1,.14-.33.45.45,0,0,1,.33-.14h9.21a.45.45,0,0,1,.33.14.46.46,0,0,1,.15.33v2.53a.46.46,0,0,1-.15.33.45.45,0,0,1-.33.14h-5.72v5h3.84a.44.44,0,0,1,.33.15.45.45,0,0,1,.14.33v2.52a.49.49,0,0,1-.14.33.47.47,0,0,1-.33.14h-3.84v1.08h6.43a.45.45,0,0,1,.33.14.45.45,0,0,1,.14.33v2.5a.48.48,0,0,1-.14.36.45.45,0,0,1-.33.14h-9.92A.45.45,0,0,1,160.9,175.5Z"/><path class="cls-3" d="M71.88,182.92h.66L77,193.57h-.81l-1.48-3.51H69.66l-1.48,3.51h-.83Zm2.66,6.51-2.33-5.58-2.37,5.58Z"/><path class="cls-3" d="M80.34,193.57l-3.25-7.8h.78l2.88,7,2.89-7h.74l-3.26,7.8Z"/><path class="cls-3" d="M87.59,193.72a2.79,2.79,0,0,1-1-.19,3,3,0,0,1-.82-.51A2.38,2.38,0,0,1,85,191.3a1.84,1.84,0,0,1,.24-.93,2.31,2.31,0,0,1,.67-.73,3.51,3.51,0,0,1,1-.48,5,5,0,0,1,1.32-.17,7.66,7.66,0,0,1,1.26.11,6.59,6.59,0,0,1,1.15.31v-.76a2.46,2.46,0,0,0-.63-1.77,2.28,2.28,0,0,0-1.71-.65,3.47,3.47,0,0,0-1.21.24,6.27,6.27,0,0,0-1.29.69l-.29-.51a5.12,5.12,0,0,1,2.85-1,3,3,0,0,1,2.22.82,3.07,3.07,0,0,1,.81,2.26v3.81c0,.25.11.37.33.37v.68l-.16,0h-.14a.6.6,0,0,1-.48-.21.81.81,0,0,1-.21-.48v-.65a3.51,3.51,0,0,1-1.38,1.08A4.38,4.38,0,0,1,87.59,193.72Zm.15-.6a3.77,3.77,0,0,0,1.59-.33,2.7,2.7,0,0,0,1.12-.87,1,1,0,0,0,.24-.6v-1.38a6,6,0,0,0-1.12-.32,6.93,6.93,0,0,0-1.22-.1,4.35,4.35,0,0,0-1.06.12,3,3,0,0,0-.83.36,1.6,1.6,0,0,0-.53.54,1.39,1.39,0,0,0-.19.72,1.8,1.8,0,0,0,.15.73,1.67,1.67,0,0,0,.42.59A1.81,1.81,0,0,0,87,193,2.06,2.06,0,0,0,87.74,193.12Z"/><path class="cls-3" d="M96.93,193.72a3.44,3.44,0,0,1-1.5-.34,3.94,3.94,0,0,1-1.19-.9,4.05,4.05,0,0,1-.78-1.29,4.12,4.12,0,0,1-.28-1.51,4.42,4.42,0,0,1,.27-1.54,4.13,4.13,0,0,1,.75-1.29,3.74,3.74,0,0,1,1.13-.89,3.17,3.17,0,0,1,1.44-.33,3,3,0,0,1,1,.15,3.6,3.6,0,0,1,.84.4,3.54,3.54,0,0,1,.7.58,4,4,0,0,1,.54.7v-4.84h.75v9.9c0,.25.11.37.32.37v.68l-.15,0h-.12a.65.65,0,0,1-.51-.24.7.7,0,0,1-.21-.48V192a3.57,3.57,0,0,1-1.29,1.24A3.27,3.27,0,0,1,96.93,193.72Zm.14-.68a2.6,2.6,0,0,0,.87-.16,3.56,3.56,0,0,0,.86-.46,3.6,3.6,0,0,0,.68-.67,1.59,1.59,0,0,0,.33-.81v-2.56a3.34,3.34,0,0,0-.47-.81,4,4,0,0,0-.7-.66,3.74,3.74,0,0,0-.84-.44,2.51,2.51,0,0,0-.87-.16,2.54,2.54,0,0,0-1.23.29,3,3,0,0,0-.94.76,3.57,3.57,0,0,0-.6,1.08A3.87,3.87,0,0,0,94,189.7a3.38,3.38,0,0,0,.24,1.27,3.55,3.55,0,0,0,.66,1.07,3.34,3.34,0,0,0,1,.73A2.84,2.84,0,0,0,97.07,193Z"/><path class="cls-3" d="M104.87,193.72a2.79,2.79,0,0,1-1-.19A3,3,0,0,1,103,193a2.38,2.38,0,0,1-.74-1.72,1.84,1.84,0,0,1,.24-.93,2.31,2.31,0,0,1,.67-.73,3.51,3.51,0,0,1,1-.48,5,5,0,0,1,1.32-.17,7.66,7.66,0,0,1,1.26.11,6.59,6.59,0,0,1,1.15.31v-.76a2.46,2.46,0,0,0-.63-1.77,2.28,2.28,0,0,0-1.71-.65,3.47,3.47,0,0,0-1.21.24,6.27,6.27,0,0,0-1.29.69l-.29-.51a5.12,5.12,0,0,1,2.85-1,3,3,0,0,1,2.22.82,3.07,3.07,0,0,1,.81,2.26v3.81c0,.25.11.37.33.37v.68l-.16,0h-.14a.6.6,0,0,1-.48-.21.81.81,0,0,1-.21-.48v-.65a3.51,3.51,0,0,1-1.38,1.08A4.38,4.38,0,0,1,104.87,193.72Zm.15-.6a3.77,3.77,0,0,0,1.59-.33,2.7,2.7,0,0,0,1.12-.87,1,1,0,0,0,.24-.6v-1.38a6,6,0,0,0-1.12-.32,6.93,6.93,0,0,0-1.22-.1,4.35,4.35,0,0,0-1.06.12,3,3,0,0,0-.83.36,1.6,1.6,0,0,0-.53.54,1.39,1.39,0,0,0-.19.72,1.8,1.8,0,0,0,.15.73,1.67,1.67,0,0,0,.42.59,1.81,1.81,0,0,0,.64.39A2.06,2.06,0,0,0,105,193.12Z"/><path class="cls-3" d="M118,182.92h.66l4.5,10.65h-.81l-1.48-3.51h-5.09l-1.48,3.51h-.83Zm2.66,6.51-2.33-5.58-2.37,5.58Z"/><path class="cls-3" d="M127.5,193.72a3.44,3.44,0,0,1-1.5-.34,3.94,3.94,0,0,1-1.19-.9,4.05,4.05,0,0,1-.78-1.29,4.12,4.12,0,0,1-.28-1.51,4.42,4.42,0,0,1,.27-1.54,4.13,4.13,0,0,1,.75-1.29,3.74,3.74,0,0,1,1.13-.89,3.17,3.17,0,0,1,1.44-.33,3.06,3.06,0,0,1,1,.15,3.53,3.53,0,0,1,.83.4,3.33,3.33,0,0,1,.71.58,4,4,0,0,1,.54.7v-4.84h.75v9.9c0,.25.11.37.32.37v.68l-.15,0h-.13a.62.62,0,0,1-.5-.24.7.7,0,0,1-.21-.48V192a3.65,3.65,0,0,1-1.29,1.24A3.27,3.27,0,0,1,127.5,193.72Zm.13-.68a2.61,2.61,0,0,0,.88-.16,3.56,3.56,0,0,0,.86-.46,3.6,3.6,0,0,0,.68-.67,1.59,1.59,0,0,0,.33-.81v-2.56a3.34,3.34,0,0,0-.47-.81,4,4,0,0,0-.7-.66,3.74,3.74,0,0,0-.84-.44,2.51,2.51,0,0,0-.87-.16,2.54,2.54,0,0,0-1.23.29,3,3,0,0,0-.94.76,3.57,3.57,0,0,0-.6,1.08,3.88,3.88,0,0,0-.22,1.26,3.2,3.2,0,0,0,.25,1.27,3.55,3.55,0,0,0,.66,1.07,3.34,3.34,0,0,0,1,.73A2.82,2.82,0,0,0,127.63,193Z"/><path class="cls-3" d="M136.72,193.72a3.44,3.44,0,0,1-1.5-.34,4.07,4.07,0,0,1-1.19-.9,4.45,4.45,0,0,1-.78-1.29,4.34,4.34,0,0,1-.28-1.51,4.21,4.21,0,0,1,.28-1.54,3.77,3.77,0,0,1,.75-1.29,3.52,3.52,0,0,1,1.13-.89,3.1,3.1,0,0,1,1.43-.33,3,3,0,0,1,1,.15,3.6,3.6,0,0,1,.84.4,4.05,4.05,0,0,1,1.24,1.28v-4.84h.75v9.9c0,.25.11.37.32.37v.68l-.15,0h-.12a.65.65,0,0,1-.51-.24.7.7,0,0,1-.21-.48V192a3.62,3.62,0,0,1-1.28,1.24A3.34,3.34,0,0,1,136.72,193.72Zm.14-.68a2.6,2.6,0,0,0,.87-.16,3.39,3.39,0,0,0,.86-.46,3.09,3.09,0,0,0,.68-.67,1.51,1.51,0,0,0,.33-.81v-2.56a3,3,0,0,0-.47-.81,3.65,3.65,0,0,0-.7-.66,3.74,3.74,0,0,0-.84-.44,2.43,2.43,0,0,0-.87-.16,2.47,2.47,0,0,0-1.22.29,3.07,3.07,0,0,0-.95.76,3.57,3.57,0,0,0-.6,1.08,3.87,3.87,0,0,0-.21,1.26,3.45,3.45,0,0,0,.91,2.34,3.11,3.11,0,0,0,1,.73A2.76,2.76,0,0,0,136.86,193Z"/><path class="cls-3" d="M146,193.72a3.49,3.49,0,0,1-1.52-.33,3.64,3.64,0,0,1-1.21-.87,4.06,4.06,0,0,1-.8-1.29,4.27,4.27,0,0,1,.81-4.4,3.92,3.92,0,0,1,1.21-.88,3.65,3.65,0,0,1,1.51-.32,3.57,3.57,0,0,1,1.5.32,4,4,0,0,1,1.21.88,4.21,4.21,0,0,1,0,5.69,3.7,3.7,0,0,1-1.2.87A3.51,3.51,0,0,1,146,193.72Zm-3.06-4a3.51,3.51,0,0,0,.89,2.36,3.24,3.24,0,0,0,1,.71A2.79,2.79,0,0,0,146,193a2.83,2.83,0,0,0,1.19-.26,3.14,3.14,0,0,0,1-.73,3.5,3.5,0,0,0,.9-2.38,3.49,3.49,0,0,0-.24-1.3,3.44,3.44,0,0,0-.66-1.07,3.36,3.36,0,0,0-1-.72,2.65,2.65,0,0,0-1.18-.27,2.69,2.69,0,0,0-1.19.27,3,3,0,0,0-1,.73,3.68,3.68,0,0,0-.91,2.4Z"/><path class="cls-3" d="M158,193.57h-.75v-4.35a4.41,4.41,0,0,0-.43-2.21,1.49,1.49,0,0,0-1.36-.69,2.78,2.78,0,0,0-1,.18,3.27,3.27,0,0,0-.91.51,3.81,3.81,0,0,0-.73.77,3.29,3.29,0,0,0-.47,1v4.83h-.75v-7.8h.71v1.86a3.7,3.7,0,0,1,1.38-1.45,4.12,4.12,0,0,1,.94-.41,3.86,3.86,0,0,1,1-.14,1.92,1.92,0,0,1,1.8.89,5.12,5.12,0,0,1,.53,2.56Z"/><path class="cls-3" d="M162.73,193.72a5,5,0,0,1-1.72-.3,4,4,0,0,1-1.44-.9L160,192a4.36,4.36,0,0,0,1.3.84,4,4,0,0,0,1.48.27,2.9,2.9,0,0,0,1.65-.43,1.38,1.38,0,0,0,.62-1.19,1.07,1.07,0,0,0-.16-.61,1.14,1.14,0,0,0-.47-.42,3.62,3.62,0,0,0-.78-.31l-1.08-.28c-.44-.1-.82-.2-1.15-.3a3.14,3.14,0,0,1-.8-.36,1.34,1.34,0,0,1-.47-.51,1.6,1.6,0,0,1-.16-.77,2.19,2.19,0,0,1,.23-1,1.87,1.87,0,0,1,.62-.72,2.94,2.94,0,0,1,.91-.43,4.44,4.44,0,0,1,1.11-.14,4,4,0,0,1,1.62.31,2.85,2.85,0,0,1,1.09.79l-.42.4a2.39,2.39,0,0,0-1-.67,3.91,3.91,0,0,0-1.33-.23,3.62,3.62,0,0,0-.82.09,2.13,2.13,0,0,0-.67.29,1.45,1.45,0,0,0-.45.5,1.64,1.64,0,0,0-.16.73,1.22,1.22,0,0,0,.11.55,1,1,0,0,0,.36.36,2.58,2.58,0,0,0,.64.26c.26.08.57.16.93.25s.92.24,1.31.35a3.82,3.82,0,0,1,.95.4,1.76,1.76,0,0,1,.58.57,1.54,1.54,0,0,1,.2.84,2,2,0,0,1-.81,1.67A3.52,3.52,0,0,1,162.73,193.72Z"/></g></g></svg>