<svg xmlns="http://www.w3.org/2000/svg" viewBox="0 0 206 206"><defs><style>.cls-1{fill:#fff;}.cls-2{fill:#114c82;}</style></defs><g id="Livello_2" data-name="Livello 2"><g id="Livello_1-2" data-name="Livello 1"><circle class="cls-1" cx="103" cy="103" r="103"/><circle class="cls-2" cx="103" cy="103" r="103"/><path class="cls-1" d="M81.21,72.42C79.6,70.7,77.08,70.81,76,73l-26.4,52.68a3.15,3.15,0,0,0,2.81,4.55H89.15A3,3,0,0,0,92,128.48c8-16.33,3.17-41.2-10.75-56.06Zm19.35-47.91C74.9,65.1,98.78,97.67,114.2,128.5a3.15,3.15,0,0,0,2.82,1.76h36.55a3.15,3.15,0,0,0,2.82-4.55L105.94,24.49C104.82,22.27,102,22.23,100.56,24.51Z"/><path class="cls-1" d="M57,145.77c.83,2.59,1.66,5.18,2.47,7.75s1.64,5.17,2.48,7.76a.47.47,0,0,1-.07.43.43.43,0,0,1-.38.2H58.78a.48.48,0,0,1-.47-.33c-.23-.7-.44-1.39-.65-2.07s-.43-1.37-.65-2.07l-2.23.48-2.23.46c-.17.53-.34,1.06-.5,1.59l-.51,1.61a.48.48,0,0,1-.47.33H48.34a.42.42,0,0,1-.38-.2.44.44,0,0,1-.07-.43c.83-2.59,1.66-5.18,2.47-7.76s1.64-5.16,2.48-7.75a.42.42,0,0,1,.45-.33h3.27A.42.42,0,0,1,57,145.77ZM56,154.16l-1-3.23-1.15,3.68Z"/><path class="cls-1" d="M66.51,145.58a.49.49,0,0,1,.14.33v12.54h6.43a.45.45,0,0,1,.33.14.45.45,0,0,1,.14.33v2.5a.45.45,0,0,1-.14.35.42.42,0,0,1-.33.14H63.16a.42.42,0,0,1-.33-.14.48.48,0,0,1-.14-.35V145.91a.49.49,0,0,1,.14-.33.45.45,0,0,1,.33-.14h3A.49.49,0,0,1,66.51,145.58Z"/><path class="cls-1" d="M78.31,145.58a.45.45,0,0,1,.14.33v12.54h6.44a.48.48,0,0,1,.47.47v2.5a.48.48,0,0,1-.14.35.45.45,0,0,1-.33.14H75a.42.42,0,0,1-.33-.14.45.45,0,0,1-.14-.35V145.91a.45.45,0,0,1,.14-.33.45.45,0,0,1,.33-.14h3A.45.45,0,0,1,78.31,145.58Z"/><path class="cls-1" d="M92.1,161.76a.49.49,0,0,1-.14-.34V145.91a.49.49,0,0,1,.14-.33.45.45,0,0,1,.33-.14h3a.52.52,0,0,1,.36.14.49.49,0,0,1,.14.33v15.51a.5.5,0,0,1-.5.49h-3A.43.43,0,0,1,92.1,161.76Z"/><path class="cls-1" d="M97.87,145.48a.48.48,0,0,1,.55.15c1.24,1.66,2.47,3.32,3.71,5l3.71,5v-9.64a.48.48,0,0,1,.47-.47h3a.51.51,0,0,1,.36.14.49.49,0,0,1,.14.33v15.51a.49.49,0,0,1-.14.34.48.48,0,0,1-.36.15h-3a.44.44,0,0,1-.38-.21c-.75-1-1.49-2-2.21-3s-1.46-2-2.22-3v5.63a.5.5,0,0,1-.49.49H98a.43.43,0,0,1-.33-.15.46.46,0,0,1-.15-.34V145.91A.42.42,0,0,1,97.87,145.48Z"/><path class="cls-1" d="M120.4,161a8.46,8.46,0,0,1-3.74-5.19,8.91,8.91,0,0,1-.17-3.22,8.53,8.53,0,0,1,1.06-3.14,8.13,8.13,0,0,1,2.18-2.51,8.66,8.66,0,0,1,2.87-1.42,7.87,7.87,0,0,1,3.18-.2,8,8,0,0,1,3.13,1.14,8.09,8.09,0,0,1,2.41,2.28,8.7,8.7,0,0,1,1.49,6.14,8.18,8.18,0,0,1-1.05,3.13,8,8,0,0,1-2.18,2.51,8.54,8.54,0,0,1-2.86,1.43,8.06,8.06,0,0,1-3.18.2A7.87,7.87,0,0,1,120.4,161Zm.1-9.57a5,5,0,0,0-.54,1.82,4.88,4.88,0,0,0,.15,1.83,5.15,5.15,0,0,0,.82,1.64,4.67,4.67,0,0,0,3.25,1.86,4.66,4.66,0,0,0,1.82-.18,4.72,4.72,0,0,0,1.62-.87,4.91,4.91,0,0,0,1.73-3.32,5.12,5.12,0,0,0-.17-1.83,4.71,4.71,0,0,0-.81-1.65,4.59,4.59,0,0,0-1.44-1.25,4.49,4.49,0,0,0-1.81-.59,4.44,4.44,0,0,0-1.82.18,4.78,4.78,0,0,0-2.8,2.36Z"/><path class="cls-1" d="M134.17,145.48a.46.46,0,0,1,.54.15l3.71,5,3.71,5v-9.64a.48.48,0,0,1,.47-.47h3a.48.48,0,0,1,.35.14.45.45,0,0,1,.14.33v15.51a.5.5,0,0,1-.49.49h-3a.43.43,0,0,1-.37-.21c-.76-1-1.5-2-2.22-3s-1.46-2-2.21-3v5.63a.5.5,0,0,1-.5.49h-3a.43.43,0,0,1-.33-.15.45.45,0,0,1-.14-.34V145.91A.42.42,0,0,1,134.17,145.48Z"/><path class="cls-1" d="M147.18,161.77a.45.45,0,0,1-.14-.35V145.91a.45.45,0,0,1,.14-.33.45.45,0,0,1,.33-.14h9.21a.45.45,0,0,1,.33.14.45.45,0,0,1,.14.33v2.52a.42.42,0,0,1-.14.33.43.43,0,0,1-.33.15H151v5h3.84a.48.48,0,0,1,.47.47v2.52a.45.45,0,0,1-.14.33.46.46,0,0,1-.33.15H151v1.08h6.43a.47.47,0,0,1,.33.14.49.49,0,0,1,.14.33v2.5a.48.48,0,0,1-.14.35.43.43,0,0,1-.33.14h-9.92A.42.42,0,0,1,147.18,161.77Z"/><path class="cls-1" d="M58.17,169.19h.66l4.5,10.65h-.81l-1.45-3.51H55.93l-1.46,3.51h-.83Zm2.64,6.51-2.31-5.58-2.31,5.58Z"/><path class="cls-1" d="M66.63,179.84l-3.25-7.78h.79l2.87,7,2.88-7h.75l-3.26,7.78Z"/><path class="cls-1" d="M71.31,177.6a1.88,1.88,0,0,1,.42-1.22,2.77,2.77,0,0,1,1.16-.8,4.43,4.43,0,0,1,1.69-.3,7.83,7.83,0,0,1,1.25.11,6.68,6.68,0,0,1,1.15.28v-.73a2.31,2.31,0,0,0-.62-1.71,2.28,2.28,0,0,0-1.72-.65,3.38,3.38,0,0,0-1.21.24,6.27,6.27,0,0,0-1.29.69l-.32-.54a7.52,7.52,0,0,1,1.48-.77,4.23,4.23,0,0,1,1.42-.26,2.93,2.93,0,0,1,2.2.82,3,3,0,0,1,.81,2.24v3.86a.36.36,0,0,0,.09.26.34.34,0,0,0,.24.11v.61l-.22,0h-.15a.66.66,0,0,1-.44-.24.74.74,0,0,1-.18-.44v-.61a3.63,3.63,0,0,1-1.38,1.05,4.37,4.37,0,0,1-1.78.37,2.8,2.8,0,0,1-1.33-.31,2.49,2.49,0,0,1-.93-.86A2.31,2.31,0,0,1,71.31,177.6Zm5.37.64a1.7,1.7,0,0,0,.23-.37.85.85,0,0,0,.07-.33v-1.28a6,6,0,0,0-1.12-.32,6.78,6.78,0,0,0-1.2-.1,3.5,3.5,0,0,0-1.9.46,1.44,1.44,0,0,0-.73,1.26,1.74,1.74,0,0,0,.26.91,1.91,1.91,0,0,0,.71.67,2.16,2.16,0,0,0,1.06.25,3.62,3.62,0,0,0,1.55-.32A2.48,2.48,0,0,0,76.68,178.24Z"/><path class="cls-1" d="M79.47,176a4.36,4.36,0,0,1,.47-2,3.86,3.86,0,0,1,1.27-1.47,3.21,3.21,0,0,1,1.85-.56,3.14,3.14,0,0,1,1.81.54,4.19,4.19,0,0,1,1.23,1.29v-4.88h.75v10a.37.37,0,0,0,.09.27.34.34,0,0,0,.23.11v.61a1.65,1.65,0,0,1-.36,0,.74.74,0,0,1-.45-.26.68.68,0,0,1-.18-.45v-.87a3.6,3.6,0,0,1-1.29,1.25,3.32,3.32,0,0,1-1.67.46,3.43,3.43,0,0,1-1.5-.33,3.93,3.93,0,0,1-1.19-.91A4.19,4.19,0,0,1,79.47,176Zm6.63,1.26v-2.56a2.9,2.9,0,0,0-.67-1,3.49,3.49,0,0,0-1.05-.75,2.78,2.78,0,0,0-1.16-.28,2.61,2.61,0,0,0-1.22.29,3,3,0,0,0-.94.76,3.39,3.39,0,0,0-.61,1.08,3.77,3.77,0,0,0-.21,1.25,3.36,3.36,0,0,0,.24,1.26,3.56,3.56,0,0,0,.67,1.08,3.11,3.11,0,0,0,1,.73,2.9,2.9,0,0,0,1.22.26,2.52,2.52,0,0,0,.86-.17,3.59,3.59,0,0,0,.87-.45,2.94,2.94,0,0,0,.69-.67A1.61,1.61,0,0,0,86.1,177.23Z"/><path class="cls-1" d="M88.59,177.6a1.88,1.88,0,0,1,.42-1.22,2.77,2.77,0,0,1,1.16-.8,4.43,4.43,0,0,1,1.69-.3,7.83,7.83,0,0,1,1.25.11,6.68,6.68,0,0,1,1.15.28v-.73a2.31,2.31,0,0,0-.62-1.71,2.28,2.28,0,0,0-1.72-.65,3.38,3.38,0,0,0-1.21.24,6.27,6.27,0,0,0-1.29.69L89.1,173a7.52,7.52,0,0,1,1.48-.77,4.23,4.23,0,0,1,1.42-.26,2.93,2.93,0,0,1,2.2.82A3,3,0,0,1,95,175v3.86a.36.36,0,0,0,.09.26.34.34,0,0,0,.24.11v.61l-.22,0H95a.66.66,0,0,1-.44-.24.74.74,0,0,1-.18-.44v-.61A3.63,3.63,0,0,1,93,179.62a4.37,4.37,0,0,1-1.78.37,2.8,2.8,0,0,1-1.33-.31,2.49,2.49,0,0,1-.93-.86A2.31,2.31,0,0,1,88.59,177.6Zm5.37.64a1.7,1.7,0,0,0,.23-.37.85.85,0,0,0,.07-.33v-1.28a6,6,0,0,0-1.12-.32,6.78,6.78,0,0,0-1.2-.1,3.5,3.5,0,0,0-1.9.46,1.44,1.44,0,0,0-.73,1.26,1.74,1.74,0,0,0,.26.91,1.91,1.91,0,0,0,.71.67,2.16,2.16,0,0,0,1.06.25,3.62,3.62,0,0,0,1.55-.32A2.48,2.48,0,0,0,94,178.24Z"/><path class="cls-1" d="M104.25,169.19h.66l4.5,10.65h-.81l-1.45-3.51H102l-1.46,3.51h-.83Zm2.64,6.51-2.31-5.58-2.31,5.58Z"/><path class="cls-1" d="M110,176a4.36,4.36,0,0,1,.47-2,3.86,3.86,0,0,1,1.27-1.47,3.21,3.21,0,0,1,1.85-.56,3.08,3.08,0,0,1,1.8.54,4.11,4.11,0,0,1,1.24,1.29v-4.88h.75v10a.41.41,0,0,0,.08.27.38.38,0,0,0,.24.11v.61a1.65,1.65,0,0,1-.36,0,.74.74,0,0,1-.45-.26.68.68,0,0,1-.18-.45v-.87a3.6,3.6,0,0,1-1.29,1.25,3.32,3.32,0,0,1-1.67.46,3.43,3.43,0,0,1-1.5-.33,3.81,3.81,0,0,1-1.19-.91,3.9,3.9,0,0,1-.78-1.28A4,4,0,0,1,110,176Zm6.63,1.26v-2.56a2.9,2.9,0,0,0-.67-1,3.49,3.49,0,0,0-1-.75,2.78,2.78,0,0,0-1.16-.28,2.59,2.59,0,0,0-1.22.29,2.89,2.89,0,0,0-.94.76,3.39,3.39,0,0,0-.61,1.08,3.77,3.77,0,0,0-.21,1.25,3.36,3.36,0,0,0,.24,1.26,3.56,3.56,0,0,0,.67,1.08,3.11,3.11,0,0,0,1,.73,2.9,2.9,0,0,0,1.22.26,2.52,2.52,0,0,0,.86-.17,3.79,3.79,0,0,0,.87-.45,3.14,3.14,0,0,0,.69-.67A1.71,1.71,0,0,0,116.67,177.23Z"/><path class="cls-1" d="M119.27,176a4.36,4.36,0,0,1,.46-2A3.89,3.89,0,0,1,121,172.5a3.17,3.17,0,0,1,1.84-.56,3.14,3.14,0,0,1,1.81.54,4.22,4.22,0,0,1,1.24,1.29v-4.88h.75v10a.36.36,0,0,0,.08.27.34.34,0,0,0,.23.11v.61a1.65,1.65,0,0,1-.36,0,.74.74,0,0,1-.45-.26.68.68,0,0,1-.18-.45v-.87a3.6,3.6,0,0,1-1.29,1.25A3.28,3.28,0,0,1,123,180a3.43,3.43,0,0,1-1.5-.33,4,4,0,0,1-1.2-.91,4.12,4.12,0,0,1-1-2.78Zm6.63,1.26v-2.56a2.93,2.93,0,0,0-.68-1,3.49,3.49,0,0,0-1-.75,2.74,2.74,0,0,0-1.15-.28,2.66,2.66,0,0,0-1.23.29,3,3,0,0,0-.94.76,3.39,3.39,0,0,0-.61,1.08A3.77,3.77,0,0,0,120,176a3.36,3.36,0,0,0,.24,1.26,3.56,3.56,0,0,0,.67,1.08,3.11,3.11,0,0,0,1,.73,2.9,2.9,0,0,0,1.22.26,2.52,2.52,0,0,0,.86-.17,3.59,3.59,0,0,0,.87-.45,2.94,2.94,0,0,0,.69-.67A1.63,1.63,0,0,0,125.9,177.23Z"/><path class="cls-1" d="M132.3,180a3.63,3.63,0,0,1-2.73-1.18,4.26,4.26,0,0,1-.79-4.38,4,4,0,0,1,.8-1.29,3.77,3.77,0,0,1,1.21-.88,3.65,3.65,0,0,1,1.51-.32,3.57,3.57,0,0,1,1.5.32,3.92,3.92,0,0,1,1.22.88,4,4,0,0,1,.81,1.29,4.38,4.38,0,0,1,0,3.08,4.07,4.07,0,0,1-.81,1.3,3.74,3.74,0,0,1-1.21.87A3.64,3.64,0,0,1,132.3,180Zm-3.06-4a3.47,3.47,0,0,0,.41,1.67,3.37,3.37,0,0,0,1.11,1.2,2.74,2.74,0,0,0,1.53.45,2.67,2.67,0,0,0,1.53-.46,3.19,3.19,0,0,0,1.11-1.22,3.43,3.43,0,0,0,.42-1.68,3.37,3.37,0,0,0-.42-1.67,3.19,3.19,0,0,0-1.11-1.22,2.74,2.74,0,0,0-1.52-.46,2.68,2.68,0,0,0-1.53.47,3.44,3.44,0,0,0-1.11,1.22A3.48,3.48,0,0,0,129.24,176Z"/><path class="cls-1" d="M144.29,179.84h-.75v-4.33a4.4,4.4,0,0,0-.43-2.19,1.49,1.49,0,0,0-1.36-.69,2.92,2.92,0,0,0-1.3.31,3.69,3.69,0,0,0-1.11.86,3.38,3.38,0,0,0-.68,1.23v4.81h-.75v-7.78h.71v1.87a3.38,3.38,0,0,1,.84-1,4.09,4.09,0,0,1,1.17-.7,3.57,3.57,0,0,1,1.33-.25,2.41,2.41,0,0,1,1.09.23,2.07,2.07,0,0,1,.72.66,3.12,3.12,0,0,1,.4,1.08,8.09,8.09,0,0,1,.12,1.47Z"/><path class="cls-1" d="M149,180a4.61,4.61,0,0,1-1.72-.31,3.81,3.81,0,0,1-1.4-1l.35-.53a4.49,4.49,0,0,0,1.3.9,3.77,3.77,0,0,0,1.44.27,3,3,0,0,0,1.63-.41,1.34,1.34,0,0,0,.62-1.17,1,1,0,0,0-.29-.78,2.09,2.09,0,0,0-.84-.45c-.37-.12-.81-.24-1.33-.37a10.68,10.68,0,0,1-1.34-.43,1.86,1.86,0,0,1-.82-.58,1.59,1.59,0,0,1-.27-1,2.08,2.08,0,0,1,.38-1.27,2.28,2.28,0,0,1,1-.74,3.94,3.94,0,0,1,1.45-.25,3.89,3.89,0,0,1,1.59.3,2.47,2.47,0,0,1,1,.79l-.41.48a2.25,2.25,0,0,0-1-.71,3.73,3.73,0,0,0-1.32-.23,3.4,3.4,0,0,0-1,.15,1.72,1.72,0,0,0-.78.48,1.38,1.38,0,0,0-.29.91,1,1,0,0,0,.22.7,1.43,1.43,0,0,0,.65.41c.29.11.65.22,1.08.34a15.73,15.73,0,0,1,1.58.46,2.65,2.65,0,0,1,1,.62,1.49,1.49,0,0,1,.36,1.07,2,2,0,0,1-.81,1.67A3.47,3.47,0,0,1,149,180Z"/></g></g></svg>